<svg width="101" height="64" viewBox="0 0 101 64" fill="none" xmlns="http://www.w3.org/2000/svg">
<path d="M100.256 27.0822C98.676 21.9131 94.307 18.0598 88.8224 17.8718C88.4506 17.8718 88.0788 17.7778 87.614 17.7778C83.059 17.7778 79.0618 20.1274 76.6449 23.6988C76.5519 23.7928 76.459 23.9807 76.2731 23.9807C76.0871 23.9807 75.9012 23.7928 75.9012 23.6988C73.4843 20.1274 69.4871 17.7778 64.9321 17.7778C64.5603 17.7778 64.1885 17.7778 63.7237 17.8718C58.9828 18.0598 55.0785 20.8793 53.1264 25.0146C51.732 27.8341 51.5461 30.5596 51.5461 31.7814C51.5461 36.0106 52.6616 40.0519 54.8926 43.8113C58.1462 49.2623 63.6307 54.1495 69.3012 58.4727C72.5547 61.0102 74.6928 62.232 76.2731 62.232C77.8534 62.232 79.8055 60.9163 83.2449 58.4727C89.0084 54.2434 94.4929 49.2623 97.6535 43.8113C99.8845 40.0519 101 36.0106 101 31.7814C101 30.5596 100.814 28.8679 100.256 27.0822Z" fill="#E6007E"/>
<path d="M70.9542 29.8705C70.8613 28.9307 70.1176 28.1788 69.281 28.0848C69.188 28.0848 69.188 28.0848 69.188 28.0848C69.0951 28.0848 68.7232 28.0848 68.4443 28.0848H66.1204C63.9823 28.0848 63.1457 25.9232 62.7739 25.0773C62.4021 24.2315 60.8218 21.6939 60.5429 21.224C59.4274 19.3443 58.4048 18.0286 59.0555 15.867C59.7063 13.6114 61.4725 11.9196 63.6105 11.3557C63.9823 11.2618 64.1683 11.2618 64.1683 11.2618C64.5401 11.2618 64.6331 10.8858 64.5401 10.6039C64.5401 10.6039 64.4471 10.4159 64.1683 10.04C62.9598 7.97234 61.0077 6.37462 58.5908 5.71674C54.1288 4.40097 49.4808 6.65657 47.4357 10.6979C47.2498 11.0738 47.1569 11.2618 47.1569 11.2618C47.0639 11.5437 46.6921 11.7317 46.3202 11.6377C46.3202 11.6377 46.1343 11.5437 45.7625 11.4497C43.4385 10.7918 40.9286 10.4159 38.3258 10.3219C38.0469 10.3219 37.7681 10.3219 37.3962 10.3219C28.1004 10.3219 19.92 14.4572 14.9003 20.6601C14.6214 21.036 13.5989 22.5398 13.227 22.8217C12.8552 23.1037 12.4834 23.1977 12.1115 23.1977C11.8327 23.1977 11.5538 23.1977 11.2749 23.1037C11.089 23.1037 11.089 22.8217 11.2749 22.7277C12.8552 21.7879 13.7848 19.9082 13.6918 18.0286C13.5059 15.3031 11.2749 13.3294 8.67207 13.6114C7.37065 13.7053 6.16219 14.3632 5.32556 15.397C4.67485 16.2429 4.30302 17.1827 4.21006 18.3105C4.21006 18.4985 4.02415 18.7804 3.83823 18.4045C3.55935 18.0286 3.28048 17.5587 3.0016 16.9948C2.53681 15.867 1.70018 15.3031 0.863559 15.585C-0.251942 15.9609 -0.0660256 17.4647 0.21285 18.3105C1.32835 21.318 3.28048 22.6338 5.51148 23.2916C5.6974 23.3856 5.88332 23.4796 5.97627 23.5736C6.25515 23.8556 6.53402 24.1375 6.8129 24.4195C7.64953 25.1713 8.95094 25.9232 10.8101 26.2991C11.089 26.2991 11.5538 26.3931 11.2749 27.145C10.4383 29.5885 9.88053 32.2201 9.88053 34.8516C9.88053 42.6522 13.8777 48.6672 18.2468 52.6145C18.4327 52.7085 18.8975 53.1784 18.8975 53.1784C19.0834 53.3664 19.1764 53.7423 18.9905 54.2122C18.8975 54.4002 17.5031 57.7836 17.5031 57.7836C16.9454 59.1933 17.5961 60.7911 18.9905 61.355L24.568 63.7046C25.9623 64.2685 27.5426 63.6106 28.1004 62.2008C28.1004 62.2008 29.1229 59.7572 29.4018 59.0054C29.4948 58.7234 29.7736 58.6294 30.0525 58.6294C30.0525 58.6294 30.0525 58.6294 30.2384 58.7234C32.0046 59.0994 34.8863 59.3813 36.9314 59.4753C37.1174 59.4753 37.4892 59.4753 37.4892 59.4753C39.1624 59.4753 41.6723 59.2873 43.0667 59.0994C43.3456 59.0994 43.3456 59.0994 43.3456 59.0994C43.7174 59.0054 43.9033 59.1933 43.9963 59.3813C44.0892 59.5693 45.2047 62.2948 45.2047 62.2948C45.7625 63.7046 47.3428 64.3624 48.7372 63.7985L54.3147 61.449C55.709 60.8851 56.3598 59.2873 55.802 57.8776C55.802 57.8776 54.7795 55.528 54.5935 54.8701C54.5006 54.5882 54.5935 54.3062 54.7795 54.2122C54.7795 54.2122 54.7795 54.2122 54.9654 54.1182C56.1738 53.1784 57.94 51.6747 59.2415 50.1709C59.5203 49.795 59.7992 49.513 59.9851 49.2311C62.1232 46.3176 63.2387 43.2162 66.2133 43.2162H68.4443C68.8162 43.2162 69.188 43.2162 69.281 43.2162C69.281 43.2162 69.281 43.2162 69.3739 43.2162C70.1176 43.0282 70.7683 42.4643 70.9542 41.7124C70.9542 41.6184 70.9542 41.6184 70.9542 41.6184C70.9542 41.4305 70.9542 41.2425 70.9542 41.1485C70.9542 41.0545 70.9542 40.6786 70.9542 40.3027V30.6224C70.9542 30.3404 70.9542 29.9645 70.9542 29.8705ZM9.41574 20.1902C8.48615 20.6601 7.74248 20.1902 7.55657 19.4383C7.27769 18.4045 7.74248 17.2767 8.76503 16.9948C9.69461 16.7128 10.6242 17.3707 10.6242 18.4045C10.5312 19.2504 9.97349 19.9082 9.41574 20.1902Z" fill="#009EE2"/>
<path d="M56.9177 29.0246C57.9958 29.0246 58.8698 28.141 58.8698 27.051C58.8698 25.961 57.9958 25.0773 56.9177 25.0773C55.8395 25.0773 54.9655 25.961 54.9655 27.051C54.9655 28.141 55.8395 29.0246 56.9177 29.0246Z" fill="#1E6E32"/>
<path d="M25.7767 16.0551C25.6837 15.6791 25.8696 15.3032 26.2415 15.1152C26.2415 15.1152 26.6133 14.9273 27.0781 14.7393C30.4246 13.4235 33.957 12.7657 37.5824 12.7657C37.8613 12.7657 38.1402 12.7657 38.419 12.7657C39.3486 12.7657 40.2782 12.8596 41.3007 12.9536C41.6726 13.0476 41.7655 13.0476 41.7655 13.0476C42.1374 13.1416 42.4162 13.4235 42.4162 13.7995C42.4162 14.1754 42.3233 14.6453 42.3233 15.0213C42.3233 15.3972 41.9514 15.5852 41.5796 15.5852C41.5796 15.5852 39.7204 15.3032 38.419 15.3032C38.1402 15.3032 37.8613 15.3032 37.5824 15.3032C34.2359 15.3032 30.9824 15.9611 28.0077 17.0889C27.4499 17.2769 27.0781 17.4648 27.0781 17.4648C26.7063 17.6528 26.3344 17.4648 26.2415 17.0889L25.7767 16.0551Z" fill="#1E6E32"/>
<path d="M36.5597 0.642098C32.2836 -1.14359 27.4497 0.924049 25.5906 5.24729C24.1962 8.53671 25.1258 12.2021 27.4497 14.5517C28.1934 15.3035 29.03 15.8674 30.0526 16.3373C32.4695 15.6795 34.9794 15.3035 37.4893 15.3035C37.7681 15.3035 38.047 15.3035 38.3259 15.3035C38.3259 15.3035 38.3259 15.3035 38.4188 15.3035C39.2555 14.6456 39.9991 13.8938 40.5569 12.9539C40.7428 12.578 41.0217 12.2021 41.1146 11.7322C42.8808 7.40891 40.9287 2.42778 36.5597 0.642098Z" fill="#FFCB00"/>
<path d="M36.188 1.76964C35.2585 1.3937 34.3289 1.20573 33.3993 1.20573C30.4246 1.20573 27.8218 2.99142 26.7063 5.71694C25.9626 7.50263 25.9626 9.47628 26.7063 11.262C27.1711 12.3898 27.9147 13.3296 28.7514 14.0815C29.3091 14.5514 29.8669 14.9273 30.6105 15.2093C31.2613 15.4912 31.912 15.6792 32.5627 15.6792C33.6782 15.4912 34.7937 15.3033 35.9092 15.3033C37.2106 14.8333 38.3261 13.9875 39.1627 12.7657C39.5346 12.2958 39.8134 11.7319 39.9993 11.262C41.5796 7.50263 39.8134 3.27337 36.188 1.76964ZM39.0698 10.886C38.7909 11.6379 38.3261 12.2958 37.8613 12.8597C36.7458 14.0815 35.1655 14.7394 33.4923 14.7394C32.6556 14.7394 31.912 14.5514 31.1683 14.2694C30.8894 14.1755 30.6105 13.9875 30.3317 13.7995C29.2162 13.1416 28.3795 12.1078 27.9147 10.886C27.264 9.3823 27.264 7.6906 27.9147 6.18686C28.8443 3.83727 31.0753 2.33354 33.5852 2.33354C34.4218 2.33354 35.1655 2.5215 35.9092 2.80345C38.8838 4.02524 40.3712 7.6906 39.0698 10.886Z" fill="#FFE57E"/>
<path d="M31.1681 9.10036C30.8892 9.94622 31.261 10.7921 32.0976 11.168C32.9343 11.5439 33.7709 11.262 34.1427 10.3221C34.5146 9.38231 34.0498 8.63045 33.2131 8.25451C32.6554 8.06655 32.0976 8.06655 31.7258 8.25451L30.6103 7.22069L33.2131 3.64932L37.3963 5.43501L36.8385 6.65679L33.585 5.24704L32.2836 7.03273C32.7484 6.84476 33.3991 6.84476 33.9568 7.12671C35.4441 7.7846 36.1878 9.19435 35.5371 10.7921C34.9794 12.2958 33.3061 13.0477 31.5399 12.2958C29.8666 11.6379 29.2159 10.0402 29.5878 8.72443L31.1681 9.10036Z" fill="#FFE57E"/>
<path d="M56.9177 29.0246C57.9958 29.0246 58.8698 28.141 58.8698 27.051C58.8698 25.961 57.9958 25.0773 56.9177 25.0773C55.8395 25.0773 54.9655 25.961 54.9655 27.051C54.9655 28.141 55.8395 29.0246 56.9177 29.0246Z" fill="#0A4682"/>
<path d="M25.7767 16.0551C25.6837 15.6791 25.8696 15.3032 26.2415 15.1152C26.2415 15.1152 26.6133 14.9273 27.0781 14.7393C30.4246 13.4235 33.957 12.7657 37.5824 12.7657C37.8613 12.7657 38.1402 12.7657 38.419 12.7657C39.3486 12.7657 40.2782 12.8596 41.3007 12.9536C41.6726 13.0476 41.7655 13.0476 41.7655 13.0476C42.1374 13.1416 42.4162 13.4235 42.4162 13.7995C42.4162 14.1754 42.3233 14.6453 42.3233 15.0213C42.3233 15.3972 41.9514 15.5852 41.5796 15.5852C41.5796 15.5852 39.7204 15.3032 38.419 15.3032C38.1402 15.3032 37.8613 15.3032 37.5824 15.3032C34.2359 15.3032 30.9824 15.9611 28.0077 17.0889C27.4499 17.2769 27.0781 17.4648 27.0781 17.4648C26.7063 17.6528 26.3344 17.4648 26.2415 17.0889L25.7767 16.0551Z" fill="#0A4682"/>
<path d="M36.5597 0.642098C32.2836 -1.14359 27.4497 0.924049 25.5906 5.24729C24.1962 8.53671 25.1258 12.2021 27.4497 14.5517C28.1934 15.3035 29.03 15.8674 30.0526 16.3373C32.4695 15.6795 34.9794 15.3035 37.4893 15.3035C37.7681 15.3035 38.047 15.3035 38.3259 15.3035C38.3259 15.3035 38.3259 15.3035 38.4188 15.3035C39.2555 14.6456 39.9991 13.8938 40.5569 12.9539C40.7428 12.578 41.0217 12.2021 41.1146 11.7322C42.8808 7.40891 40.9287 2.42778 36.5597 0.642098Z" fill="#FFB900"/>
<path d="M36.188 1.76964C35.2585 1.3937 34.3289 1.20573 33.3993 1.20573C30.4246 1.20573 27.8218 2.99142 26.7063 5.71694C25.9626 7.50263 25.9626 9.47628 26.7063 11.262C27.1711 12.3898 27.9147 13.3296 28.7514 14.0815C29.3091 14.5514 29.8669 14.9273 30.6105 15.2093C31.2613 15.4912 31.912 15.6792 32.5627 15.6792C33.6782 15.4912 34.7937 15.3033 35.9092 15.3033C37.2106 14.8333 38.3261 13.9875 39.1627 12.7657C39.5346 12.2958 39.8134 11.7319 39.9993 11.262C41.5796 7.50263 39.8134 3.27337 36.188 1.76964ZM39.0698 10.886C38.7909 11.6379 38.3261 12.2958 37.8613 12.8597C36.7458 14.0815 35.1655 14.7394 33.4923 14.7394C32.6556 14.7394 31.912 14.5514 31.1683 14.2694C30.8894 14.1755 30.6105 13.9875 30.3317 13.7995C29.2162 13.1416 28.3795 12.1078 27.9147 10.886C27.264 9.3823 27.264 7.6906 27.9147 6.18686C28.8443 3.83727 31.0753 2.33354 33.5852 2.33354C34.4218 2.33354 35.1655 2.5215 35.9092 2.80345C38.8838 4.02524 40.3712 7.6906 39.0698 10.886Z" fill="#FFE57E"/>
<path d="M31.1681 9.10036C30.8892 9.94622 31.261 10.7921 32.0976 11.168C32.9343 11.5439 33.7709 11.262 34.1427 10.3221C34.5146 9.38231 34.0498 8.63045 33.2131 8.25451C32.6554 8.06655 32.0976 8.06655 31.7258 8.25451L30.6103 7.22069L33.2131 3.64932L37.3963 5.43501L36.8385 6.65679L33.585 5.24704L32.2836 7.03273C32.7484 6.84476 33.3991 6.84476 33.9568 7.12671C35.4441 7.7846 36.1878 9.19435 35.5371 10.7921C34.9794 12.2958 33.3061 13.0477 31.5399 12.2958C29.8666 11.6379 29.2159 10.0402 29.5878 8.72443L31.1681 9.10036Z" fill="#FFE57E"/>
</svg>
