<svg width="112" height="67" viewBox="0 0 112 67" fill="none" xmlns="http://www.w3.org/2000/svg">
<path d="M32.5165 13.6577C32.4806 13.478 32.4806 13.2623 32.4806 13.0467C32.4806 8.12273 36.4693 4.09731 41.4283 4.09731C42.8657 4.09731 44.1952 4.5286 45.4529 5.06772C46.6747 5.5709 47.2497 5.06772 47.5731 4.70831C50.0885 1.83301 53.8257 0 57.9582 0C65.5763 0 71.793 6.1819 71.793 13.8374C71.793 14.4484 71.7571 15.0594 71.6852 15.6345C71.5055 17.144 72.3679 17.3596 72.7992 17.5753C77.2191 19.5161 80.2735 23.9369 80.2735 29.0406C80.2735 35.9772 74.6678 41.5841 67.7324 41.5841C60.797 41.5841 45.2733 41.5841 37.6911 41.5841C30.1089 41.5841 24 35.4381 24 27.8904C24 22.643 26.9466 18.0785 31.2947 15.7782C31.7619 15.5266 32.7321 15.2032 32.5165 13.6577Z" fill="#C8E6FA"/>
<path fill-rule="evenodd" clip-rule="evenodd" d="M36.464 58.6512C34.1732 58.6512 32.3054 60.526 32.3054 62.8256C32.3054 65.1252 34.1732 67 36.464 67C38.7549 67 40.6226 65.1252 40.6226 62.8256C40.6226 60.526 38.7549 58.6512 36.464 58.6512Z" fill="#994916"/>
<path fill-rule="evenodd" clip-rule="evenodd" d="M38.536 62.8254C38.536 63.9825 37.6022 64.9199 36.4494 64.9199C35.2967 64.9199 34.3629 63.9825 34.3629 62.8254C34.3629 61.6683 35.2967 60.7309 36.4494 60.7309C37.6022 60.7455 38.536 61.6829 38.536 62.8254Z" fill="white"/>
<path fill-rule="evenodd" clip-rule="evenodd" d="M6.78506 58.6512C4.4942 58.6512 2.6265 60.526 2.6265 62.8256C2.6265 65.1252 4.4942 67 6.78506 67C9.07591 67 10.9436 65.1252 10.9436 62.8256C10.9436 60.526 9.07591 58.6512 6.78506 58.6512Z" fill="#994916"/>
<path fill-rule="evenodd" clip-rule="evenodd" d="M8.85699 62.8254C8.85699 63.9825 7.92314 64.9199 6.77042 64.9199C5.61769 64.9199 4.68384 63.9825 4.68384 62.8254C4.68384 61.6683 5.61769 60.7309 6.77042 60.7309C7.92314 60.7455 8.85699 61.6829 8.85699 62.8254Z" fill="white"/>
<path d="M42.607 54.4767C41.1916 52.7776 40.3745 51.8842 38.3901 49.8189C34.9903 46.2597 34.1294 45 28.964 45H21.6975C18.2393 45 16.5905 46.2889 14.8541 48.0173C13.7305 49.1451 13.0302 49.8482 12.1109 50.771C11.177 51.6937 10.6372 51.9427 8.50681 52.1185C4.42121 52.4554 2.34923 53.4075 1.10896 55.3409C1.66343 55.7364 2.04281 56.3808 2.04281 57.1278C2.04281 58.285 1.15273 59.2224 0.0291863 59.2956C0.0291863 60.0719 0.116733 60.8629 0.335604 61.5366C0.525293 62.1079 0.860898 62.4154 0.860898 62.4154C1.29864 62.8256 1.75097 62.5766 1.78016 62.1372L1.85312 61.8003C2.32004 59.486 4.36284 57.743 6.79962 57.743C9.58658 57.743 11.8628 60.0133 11.8628 62.8109C11.8628 63.4261 12.1401 63.6458 12.8113 63.6458H30.4669C31.0214 63.6458 31.3424 63.514 31.3862 62.7816C31.3862 62.7816 31.4446 62.1372 31.5029 61.8296C31.9553 59.5007 34.0126 57.7284 36.464 57.7284C38.8862 57.7284 40.8998 59.4274 41.3959 61.6977C41.4689 62.0493 41.4981 62.4447 41.4981 62.4447C41.5418 63.0013 41.9504 63.1625 42.4611 62.9867C42.4611 62.9867 43.3074 62.7523 43.9932 62.0786C44.7519 61.3462 45 60.3209 45 59.2956C45 57.0692 43.9494 56.0732 42.607 54.4767Z" fill="#FFB900"/>
<path d="M2.02821 57.128C2.02821 56.3956 1.66343 55.7365 1.09436 55.341C0.846308 55.7219 0.627436 56.1466 0.437748 56.6007C0.175102 57.2305 4.5682e-06 58.2412 4.5682e-06 59.2958C1.13814 59.2225 2.02821 58.2851 2.02821 57.128Z" fill="#FFE57E"/>
<path d="M25.1119 48.2661C25.1119 47.7095 24.6596 47.2408 24.0905 47.2408H20.3697C19.144 47.2408 18.1664 47.7388 17.4514 48.4565C17.4514 48.4565 15.5691 50.5071 14.8979 51.2834C14.2267 52.0451 14.431 53.0704 15.5253 53.0704H24.0905C24.6596 53.0704 25.1119 52.6163 25.1119 52.0451V48.2661Z" fill="white"/>
<path d="M27.1692 48.4569C27.1692 47.9003 27.6215 47.3584 28.176 47.2705C28.176 47.2705 30.175 46.9483 32.3638 47.9882C35.0194 49.2332 35.5155 52.0601 35.5155 52.0601C35.6322 52.6167 35.282 53.0561 34.713 53.0561L28.176 53.0708C27.6215 53.0708 27.1546 52.6167 27.1546 52.0455V48.4569H27.1692Z" fill="white"/>
<path d="M65.1299 27.0894C65.0115 27.149 64.893 27.2384 64.8042 27.3279L57.5205 37.6706L50.2369 47.9836C50.1184 48.1922 50 48.5201 50 48.7586V66.5827C50 66.8212 50.1777 67 50.4145 67H79.6972H80.1117V48.3413L65.1299 27.0894Z" fill="#E5007E"/>
<path d="M58.2902 60.5916C58.2902 60.681 58.2014 60.7704 58.1126 60.7704H55.7143C55.6254 60.7704 55.5366 60.681 55.5366 60.5916V58.1773C55.5366 58.0878 55.6254 57.9984 55.7143 57.9984H58.1126C58.2014 57.9984 58.2902 58.0878 58.2902 58.1773V60.5916Z" fill="white"/>
<path d="M58.2902 56.5679C58.2902 56.6573 58.2014 56.7467 58.1126 56.7467H55.7143C55.6254 56.7467 55.5366 56.6573 55.5366 56.5679V54.1536C55.5366 54.0641 55.6254 53.9747 55.7143 53.9747H58.1126C58.2014 53.9747 58.2902 54.0641 58.2902 54.1536V56.5679Z" fill="white"/>
<path d="M62.2875 60.5916C62.2875 60.681 62.1987 60.7704 62.1099 60.7704H59.7116C59.6228 60.7704 59.534 60.681 59.534 60.5916V58.1773C59.534 58.0878 59.6228 57.9984 59.7116 57.9984H62.1099C62.1987 57.9984 62.2875 58.0878 62.2875 58.1773V60.5916Z" fill="white"/>
<path d="M62.2875 56.5679C62.2875 56.6573 62.1987 56.7467 62.1099 56.7467H59.7116C59.6228 56.7467 59.534 56.6573 59.534 56.5679V54.1536C59.534 54.0641 59.6228 53.9747 59.7116 53.9747H62.1099C62.1987 53.9747 62.2875 54.0641 62.2875 54.1536V56.5679Z" fill="white"/>
<path d="M64.4489 48.4606C64.4489 48.5501 64.3601 48.6395 64.2712 48.6395H61.873C61.7841 48.6395 61.6953 48.5501 61.6953 48.4606V46.0463C61.6953 45.9569 61.7841 45.8675 61.873 45.8675H64.2712C64.3601 45.8675 64.4489 45.9569 64.4489 46.0463V48.4606Z" fill="white"/>
<path d="M64.4489 44.4367C64.4489 44.5261 64.3601 44.6156 64.2712 44.6156H61.873C61.7841 44.6156 61.6953 44.5261 61.6953 44.4367V42.0224C61.6953 41.933 61.7841 41.8436 61.873 41.8436H64.2712C64.3601 41.8436 64.4489 41.933 64.4489 42.0224V44.4367Z" fill="white"/>
<path d="M65.6924 42.0223C65.6924 41.9329 65.7813 41.8435 65.8701 41.8435H68.2684C68.3572 41.8435 68.446 41.9329 68.446 42.0223V44.4366C68.446 44.5261 68.3572 44.6155 68.2684 44.6155H65.8701C65.7813 44.6155 65.6924 44.5261 65.6924 44.4366V42.0223Z" fill="white"/>
<path d="M65.6924 48.4605V46.0461C65.6924 45.9567 65.7813 45.8673 65.8701 45.8673H68.2684C68.3572 45.8673 68.446 45.9567 68.446 46.0461V48.4605C68.446 48.5499 68.3572 48.6393 68.2684 48.6393H65.8701C65.7813 48.6393 65.6924 48.5499 65.6924 48.4605Z" fill="white"/>
<path d="M70.5778 60.5916C70.5778 60.681 70.489 60.7705 70.4002 60.7705H68.0019C67.913 60.7705 67.8242 60.681 67.8242 60.5916V58.1773C67.8242 58.0879 67.913 57.9985 68.0019 57.9985H70.4002C70.489 57.9985 70.5778 58.0879 70.5778 58.1773V60.5916Z" fill="white"/>
<path d="M70.5778 56.5679C70.5778 56.6574 70.489 56.7468 70.4002 56.7468H68.0019C67.913 56.7468 67.8242 56.6574 67.8242 56.5679V54.1536C67.8242 54.0642 67.913 53.9748 68.0019 53.9748H70.4002C70.489 53.9748 70.5778 54.0642 70.5778 54.1536V56.5679Z" fill="white"/>
<path d="M74.575 60.5916C74.575 60.681 74.4862 60.7704 74.3973 60.7704H71.9991C71.9102 60.7704 71.8214 60.681 71.8214 60.5916V58.1773C71.8214 58.0878 71.9102 57.9984 71.9991 57.9984H74.3973C74.4862 57.9984 74.575 58.0878 74.575 58.1773V60.5916Z" fill="white"/>
<path d="M74.575 56.5679C74.575 56.6573 74.4862 56.7467 74.3973 56.7467H71.9991C71.9102 56.7467 71.8214 56.6573 71.8214 56.5679V54.1536C71.8214 54.0641 71.9102 53.9747 71.9991 53.9747H74.3973C74.4862 53.9747 74.575 54.0641 74.575 54.1536V56.5679Z" fill="white"/>
<path d="M88.106 48.3413C88.3428 48.3413 88.6389 48.1923 88.7574 47.9836L95.8042 37.9985C95.9522 37.8197 96.1595 37.8197 96.2779 37.9985L103.325 47.9836C103.473 48.1624 103.769 48.3413 103.976 48.3413H107.144H111.882C111.852 48.2221 111.793 48.073 111.733 47.9836L104.45 37.6706L97.1661 27.3577C97.0477 27.1788 96.722 27 96.5148 27H65.4852C65.3667 27 65.2483 27.0298 65.1299 27.0894L80.1413 48.3413H85.3524H88.106Z" fill="#8B0259"/>
<path d="M111.911 48.3413H107.174H104.006C103.769 48.3413 103.473 48.1923 103.354 47.9836L96.3075 37.9986C96.1594 37.8197 95.9522 37.8197 95.8338 37.9986L88.787 47.9836C88.6389 48.1625 88.3428 48.3413 88.1356 48.3413H85.382H80.1709V67H80.5854H111.585C111.822 67 112 66.8212 112 66.5827V48.7586C112 48.6394 111.97 48.4904 111.911 48.3413Z" fill="#F3A9CB"/>
<path d="M89.2904 60.5916C89.2904 60.681 89.2016 60.7704 89.1128 60.7704H86.7145C86.6257 60.7704 86.5368 60.681 86.5368 60.5916V58.1773C86.5368 58.0878 86.6257 57.9984 86.7145 57.9984H89.1128C89.2016 57.9984 89.2904 58.0878 89.2904 58.1773V60.5916Z" fill="white"/>
<path d="M89.2904 56.5679C89.2904 56.6573 89.2016 56.7467 89.1128 56.7467H86.7145C86.6257 56.7467 86.5368 56.6573 86.5368 56.5679V54.1536C86.5368 54.0641 86.6257 53.9747 86.7145 53.9747H89.1128C89.2016 53.9747 89.2904 54.0641 89.2904 54.1536V56.5679Z" fill="white"/>
<path d="M93.2874 60.5916C93.2874 60.681 93.1986 60.7704 93.1098 60.7704H90.7115C90.6227 60.7704 90.5339 60.681 90.5339 60.5916V58.1773C90.5339 58.0878 90.6227 57.9984 90.7115 57.9984H93.1098C93.1986 57.9984 93.2874 58.0878 93.2874 58.1773V60.5916Z" fill="white"/>
<path d="M93.2874 56.5679C93.2874 56.6573 93.1986 56.7467 93.1098 56.7467H90.7115C90.6227 56.7467 90.5339 56.6573 90.5339 56.5679V54.1536C90.5339 54.0641 90.6227 53.9747 90.7115 53.9747H93.1098C93.1986 53.9747 93.2874 54.0641 93.2874 54.1536V56.5679Z" fill="white"/>
<path d="M101.578 60.5916C101.578 60.681 101.489 60.7705 101.4 60.7705H99.0019C98.913 60.7705 98.8242 60.681 98.8242 60.5916V58.1773C98.8242 58.0879 98.913 57.9985 99.0019 57.9985H101.4C101.489 57.9985 101.578 58.0879 101.578 58.1773V60.5916Z" fill="white"/>
<path d="M101.578 56.5679C101.578 56.6574 101.489 56.7468 101.4 56.7468H99.0019C98.913 56.7468 98.8242 56.6574 98.8242 56.5679V54.1536C98.8242 54.0642 98.913 53.9748 99.0019 53.9748H101.4C101.489 53.9748 101.578 54.0642 101.578 54.1536V56.5679Z" fill="white"/>
<path d="M105.575 60.5916C105.575 60.681 105.486 60.7704 105.397 60.7704H102.999C102.91 60.7704 102.821 60.681 102.821 60.5916V58.1773C102.821 58.0878 102.91 57.9984 102.999 57.9984H105.397C105.486 57.9984 105.575 58.0878 105.575 58.1773V60.5916Z" fill="white"/>
<path d="M105.575 56.5679C105.575 56.6573 105.486 56.7467 105.397 56.7467H102.999C102.91 56.7467 102.821 56.6573 102.821 56.5679V54.1536C102.821 54.0641 102.91 53.9747 102.999 53.9747H105.397C105.486 53.9747 105.575 54.0641 105.575 54.1536V56.5679Z" fill="white"/>
</svg>
