<svg width="167" height="36" viewBox="0 0 167 36" fill="none" xmlns="http://www.w3.org/2000/svg">
<path d="M14.4983 16.5711C16.478 16.5711 18.074 15.9543 19.3063 14.7002C20.5386 13.446 21.185 11.5957 21.2254 9.1285H22.2355V26.0286H21.2254C21.1042 23.3764 20.4578 21.4232 19.2457 20.1279C18.0336 18.8327 16.276 18.1953 13.9528 18.1953H13.0236V29.6471C13.0236 31.5591 13.367 32.8544 14.0336 33.5123C14.7003 34.1702 16.0942 34.458 18.2154 34.3552V35.2393H0.134888V34.3552C2.25606 34.458 3.58937 34.1291 4.17522 33.4095C4.76107 32.6899 5.04389 31.4357 5.04389 29.6471V5.65391C5.04389 3.6185 4.70047 2.30268 4.01361 1.72701C3.32675 1.15134 2.01364 0.863507 0.134888 0.904626V0H28.5384V9.62193H27.6496C27.3263 6.78469 26.4779 4.79041 25.084 3.63906C23.69 2.48772 21.6093 1.89149 18.8618 1.89149H12.9427V16.5711H14.4983ZM36.2757 10.8966C37.7504 10.8966 39.1645 11.1639 40.4978 11.719C41.8311 12.2741 43.023 13.076 44.0331 14.1451C45.0432 15.2142 45.8513 16.53 46.4573 18.0925C47.0634 19.6551 47.3664 21.4643 47.3664 23.4997C47.3664 25.8024 47.0028 27.735 46.2553 29.3181C45.5078 30.9012 44.5988 32.1759 43.5079 33.1628C42.417 34.1496 41.2453 34.8692 39.9726 35.301C38.6999 35.7327 37.5282 35.9589 36.4575 35.9589C35.1444 35.9589 33.8313 35.6916 32.498 35.1776C31.1647 34.6636 29.9728 33.8823 28.9021 32.8338C27.8314 31.7853 26.9627 30.4694 26.2961 28.8863C25.6294 27.3033 25.286 25.4529 25.286 23.3558C25.286 21.526 25.5688 19.8606 26.1142 18.3392C26.6597 16.8178 27.4273 15.502 28.397 14.4123C29.3667 13.3227 30.5182 12.4592 31.8515 11.8218C33.1848 11.1845 34.6797 10.8966 36.2757 10.8966ZM36.3767 34.1702C37.6898 34.1702 38.6595 33.5328 39.2857 32.2376C39.912 30.9423 40.215 28.4957 40.215 24.8978C40.215 22.8212 40.1746 21.012 40.114 19.4906C40.0534 17.9692 39.8918 16.6945 39.6292 15.687C39.3665 14.6796 38.9827 13.9189 38.4575 13.4255C37.9322 12.932 37.2252 12.6853 36.3161 12.6853C35.003 12.6853 34.0535 13.3843 33.4272 14.803C32.801 16.2216 32.5182 18.6682 32.5182 22.1633C32.5182 26.5631 32.7606 29.6676 33.2252 31.4769C33.6899 33.2861 34.7403 34.1702 36.3767 34.1702ZM57.5682 31.7236C57.5682 32.6282 57.7703 33.3067 58.1541 33.7179C58.5379 34.1291 59.1844 34.3552 60.053 34.3552V35.2599H47.6896V34.3552C48.7805 34.3552 49.5482 34.1085 50.0128 33.6356C50.4774 33.1628 50.7199 32.4021 50.7199 31.3741V4.21473C50.7199 2.89891 50.4977 2.01485 50.033 1.56254C49.5684 1.11022 48.8007 0.884066 47.6896 0.904626V0H57.5682V31.7236ZM82.7193 29.2975C83.891 31.1479 84.8203 32.4432 85.5071 33.1628C86.194 33.8824 86.8203 34.2935 87.4263 34.3552V35.2599H75.972V34.3552C76.4972 34.2524 76.8608 34.1496 77.083 34.0263C77.3053 33.9029 77.3861 33.6768 77.3861 33.3684C77.3861 33.1833 77.3255 32.9366 77.2043 32.6282C77.083 32.3198 76.9416 32.032 76.78 31.7441L72.3357 24.5688L71.2246 25.8641V31.0451C71.2246 32.1142 71.4266 32.9366 71.8306 33.4712C72.2346 34.0057 72.9619 34.2935 74.0124 34.3552V35.2599H61.3459V34.3552C62.5783 34.3963 63.4065 34.1291 63.7904 33.5328C64.1742 32.9366 64.3762 32.032 64.3762 30.8395V4.35865C64.3762 3.04283 64.154 2.13821 63.7297 1.60365C63.3055 1.0691 62.4974 0.842947 61.3459 0.925185V0H71.2246V23.4586L75.9922 17.8047C76.8002 16.7973 77.3457 16.0571 77.6083 15.6048C77.8709 15.1525 78.0123 14.6591 78.0123 14.1451C78.0123 13.5077 77.7901 13.0554 77.3659 12.7676C76.9416 12.4797 76.2548 12.3564 75.3659 12.3564V11.4517H85.3455V12.3564C84.2344 12.5208 83.2446 12.8909 82.3355 13.4666C81.4264 14.0423 80.1941 15.2553 78.5982 17.1468L76.5376 19.5317L82.7193 29.2975ZM93.6686 17.044C94.1939 17.5785 94.8807 18.072 95.6888 18.5037C96.4969 18.9355 97.3655 19.3672 98.2948 19.8195C99.2241 20.2718 100.133 20.7447 101.042 21.2793C101.951 21.8138 102.759 22.4306 103.466 23.1502C104.153 23.8698 104.679 24.6716 105.042 25.5146C105.406 26.3781 105.567 27.2827 105.567 28.2696C105.567 29.3798 105.365 30.3872 104.941 31.3329C104.517 32.2787 103.971 33.0805 103.244 33.7796C102.517 34.4786 101.689 35.0131 100.699 35.4038C99.7089 35.7944 98.6584 35.9794 97.5069 35.9794C96.012 35.9794 94.6383 35.7122 93.4262 35.1776C92.2141 34.6431 91.305 34.3758 90.7596 34.3758C90.4162 34.3758 90.1131 34.4991 89.8505 34.7459C89.5879 34.9926 89.3455 35.4038 89.103 35.9589H88.6586V27.4883H89.2041C90.0525 29.6265 91.1434 31.2713 92.4565 32.4432C93.7696 33.6151 95.2444 34.1907 96.9009 34.1907C97.9312 34.1907 98.7999 33.9029 99.4665 33.3067C100.133 32.7104 100.477 32.0114 100.477 31.1685C100.477 30.6956 100.416 30.305 100.275 29.9966C100.133 29.6882 99.9311 29.3798 99.6483 29.0919C99.0827 28.5368 98.3756 28.0228 97.5675 27.5911C96.7595 27.1593 95.8908 26.707 95.0221 26.2958C94.1535 25.8846 93.2646 25.4323 92.4363 24.9595C91.608 24.4866 90.8808 23.9726 90.2747 23.3764C89.4869 22.554 88.9414 21.7316 88.598 20.9092C88.2546 20.0868 88.093 19.1822 88.093 18.1748C88.093 17.1468 88.2748 16.1805 88.6586 15.317C89.0424 14.4535 89.5677 13.6722 90.2343 13.0143C90.901 12.3564 91.6889 11.8424 92.5777 11.4723C93.4666 11.1022 94.4565 10.8966 95.4868 10.8966C96.8605 10.8966 98.0524 11.1433 99.0221 11.6368C99.9917 12.1302 100.78 12.3769 101.345 12.3769C101.729 12.3769 102.093 12.2536 102.416 12.0069C102.739 11.7601 103.062 11.3901 103.386 10.8966H103.931V18.9355H103.365C102.638 17.0234 101.608 15.502 100.315 14.3712C99.0221 13.2404 97.5271 12.6853 95.8706 12.6853C95.0019 12.6853 94.2747 12.9115 93.6888 13.3844C93.103 13.8572 92.8 14.4329 92.8 15.1319C92.8 15.4609 92.8808 15.7898 93.0626 16.1393C93.2444 16.4889 93.4262 16.7767 93.6686 17.044ZM127.648 32.731C127.931 32.731 128.153 32.6488 128.335 32.5049C128.516 32.3609 128.719 32.0937 128.961 31.7236L129.405 32.1759C128.9 33.3684 128.153 34.2935 127.183 34.972C126.214 35.6299 125.102 35.9794 123.85 35.9794C122.557 35.9794 121.567 35.6299 120.86 34.9309C120.153 34.2319 119.729 33.2656 119.608 32.0114L117.163 33.9852C116.355 34.6225 115.486 35.1159 114.537 35.4654C113.587 35.815 112.699 36 111.85 36C110.557 36 109.487 35.5271 108.598 34.5814C107.709 33.6356 107.285 32.4637 107.285 31.0862C107.285 29.6265 107.891 28.2079 109.103 26.7893C110.315 25.3706 112.153 24.0548 114.638 22.8418L119.608 20.3746V15.8721C119.608 14.9674 119.325 14.2067 118.759 13.5899C118.193 12.9732 117.365 12.6853 116.254 12.6853C115.284 12.6853 114.476 12.8909 113.83 13.3021C113.183 13.7133 112.84 14.2067 112.84 14.803C112.84 15.317 113.103 15.7898 113.608 16.2421C114.133 16.6945 114.375 17.3729 114.375 18.2776C114.375 19.0999 114.072 19.7579 113.486 20.2718C112.901 20.7858 112.113 21.0531 111.123 21.0531C110.093 21.0531 109.224 20.7653 108.557 20.169C107.87 19.5934 107.547 18.8121 107.547 17.8458C107.547 16.8795 107.83 15.9749 108.396 15.1319C108.961 14.289 109.709 13.5488 110.678 12.9115C111.628 12.2741 112.739 11.7807 113.991 11.4106C115.244 11.0405 116.577 10.8761 117.971 10.8761C120.739 10.8761 122.799 11.4517 124.193 12.6031C125.587 13.7544 126.274 15.3375 126.274 17.3729V29.7293C126.274 30.5928 126.375 31.3124 126.577 31.8675C126.779 32.4226 127.143 32.731 127.648 32.731ZM119.608 22.1222C117.81 23.0885 116.396 24.0959 115.365 25.1445C114.335 26.193 113.81 27.4266 113.81 28.8247C113.81 29.6471 114.072 30.305 114.598 30.819C115.123 31.3329 115.729 31.6002 116.436 31.6002L119.608 30.2022V22.1222ZM164.576 31.4974C164.576 32.2787 164.758 32.916 165.142 33.4712C165.526 34.0057 166.051 34.2935 166.738 34.3552V35.2393H155.587V34.3552C156.395 34.2524 156.94 33.9235 157.263 33.3478C157.567 32.7721 157.728 31.9292 157.728 30.7984V16.9206C157.728 16.2627 157.567 15.6459 157.263 15.0702C156.96 14.4946 156.435 14.2067 155.728 14.2067C155.041 14.2067 154.395 14.4329 153.809 14.8646C153.223 15.317 152.516 16.1393 151.688 17.3318V31.1068C151.688 32.0731 151.849 32.8132 152.193 33.3272C152.536 33.8618 153.082 34.1907 153.829 34.3347V35.2393H142.779V34.3347C143.506 34.2113 144.052 33.8824 144.375 33.3478C144.698 32.8132 144.86 32.0114 144.86 30.9218V17.2496C144.86 16.2833 144.678 15.5431 144.334 15.0291C143.991 14.5151 143.446 14.2479 142.718 14.2479C142.052 14.2479 141.405 14.4946 140.779 14.988C140.153 15.4814 139.506 16.2627 138.84 17.3318V31.0451C138.84 32.1142 139.021 32.916 139.385 33.4095C139.749 33.9029 140.294 34.2319 141.001 34.3347V35.2393H129.688V34.3347C130.678 34.2113 131.304 33.8618 131.587 33.2861C131.87 32.7104 131.991 31.8881 131.991 30.819V16.016C131.991 14.8235 131.83 13.9395 131.486 13.3432C131.143 12.7676 130.557 12.4386 129.668 12.3564V11.4517H138.819V14.7824H138.88C139.91 13.446 140.961 12.4592 142.011 11.8424C143.062 11.2256 144.213 10.8966 145.466 10.8966C146.981 10.8966 148.254 11.2873 149.284 12.048C150.314 12.8292 150.961 13.8778 151.264 15.2347C152.193 13.8572 153.284 12.7881 154.536 12.0274C155.789 11.2667 157.122 10.8761 158.476 10.8761C160.334 10.8761 161.809 11.4723 162.9 12.6648C163.991 13.8572 164.516 15.4814 164.516 17.5374L164.576 31.4974Z" fill="#009CE0"/>
</svg>
